<svg width="457px" height="599px" viewBox="0 0 457 599" version="1.1" xmlns="http://www.w3.org/2000/svg" xmlns:xlink="http://www.w3.org/1999/xlink">
    <title>Avatar Copy</title>
    <g id="Page-1" stroke="none" stroke-width="1" fill="none" fill-rule="evenodd">
        <g id="person" transform="translate(64.880282, 90.260092)">
            <g id="BODY" transform="translate(0.000000, 150.043235)">
                <path d="M381.887646,91.2262305 C376.306609,91.774044 370.725573,92.3210759 365.144536,92.8688894 C338.41542,94.9104908 311.696867,99.1742142 285.172369,101.733152 C284.511956,100.658625 283.2193,100.835628 282.434473,101.582327 C279.787735,101.35062 276.821354,99.3281647 274.423836,101.431893 C274.34598,101.420953 274.268123,101.408058 274.189484,101.400634 C269.920666,93.2096121 266.969934,84.473121 264.106059,75.7249076 C262.278186,70.3464112 259.818852,65.1398392 255.27421,61.5286467 C247.518271,56.1462429 229.747374,45.2317831 220.640092,45.6905084 C220.489074,44.0603532 219.728895,42.3801836 218.48084,41.2947159 C221.231647,36.6062612 210.232721,33.5471803 209.456892,34.0906956 C209.954158,18.4268261 202.583981,4.82370412 186.33266,1.70444972 C171.773451,-1.32845178 151.065516,-1.83797298 143.235242,13.3730322 C142.374514,13.2761294 133.576169,13.230335 132.724831,13.3256749 C131.401266,11.6498034 116.865928,27.5301731 122.823338,33.0587126 C69.5618988,56.6131275 39.2773325,53.8026017 24.5354144,120.02043 C22.5424386,126.240965 22.3972886,133.047996 20.2928094,139.12982 C12.8056521,156.607882 6.73282694,175.219081 5.22146734,194.237038 C1.57119942,195.172072 1.15139905,201.60634 5.37952825,202.537076 C6.99456641,202.893037 8.34512641,203.379114 9.5227584,204.300863 C8.602171,219.885804 12.3725496,255.487426 14.748158,255.377628 C19.5920988,270.789473 41.198635,275.139086 56.4953311,269.723079 C53.8583745,274.682705 56.4953311,277.801085 56.4953311,280.451029 C111.536911,282.532876 171.719069,281.333904 226.74539,284.18902 C233.784187,284.088992 241.187619,285.917251 248.13017,284.864996 C252.364168,283.850251 252.37121,277.194826 248.07657,276.371934 L266.842133,272.297277 C266.422723,272.139028 274.577404,266.716472 280.740605,256.583487 C286.477355,245.248203 282.572971,231.565449 285.172369,219.235349 C305.474588,217.575497 326.112491,216.865797 346.192486,213.428482 C348.930382,221.617942 360.782211,211.823725 364.54946,207.883923 C364.544765,207.877671 364.54007,207.87181 364.535375,207.865558 C366.358553,207.366977 367.820617,205.658675 367.869522,203.636219 C369.148093,201.809914 369.416484,199.235738 368.190338,197.470778 C373.810108,165.052101 382.377478,131.951979 385.474142,99.2285267 C386.568831,98.9862697 387.599748,98.5064445 388.473778,97.7671699 L388.402963,97.6964465 C389.883806,96.0459729 390.171759,93.1971086 387.703035,91.794753 C385.711624,90.6623969 384.048855,91.0136695 381.887646,91.2262305 Z" id="✋-Skin" fill="#FFDBB4"></path>
                <path d="M169.626761,212.560992 L173.926056,215.296151 L209.102113,226.627528 L230.598592,229.362688 L248.18662,226.627528 L248.18662,256.714286 L251.704225,284.847358 C250.140845,287.712764 235.288732,287.712764 207.147887,284.847358 C189.208835,283.020737 123.64622,282.134554 108.71904,281.744604 L107.873239,281.721461 C90.3322451,281.215645 73.0047803,281.215645 55.8908451,281.721461 L55.8908451,271.171559 L104.746479,246.945858 L148.521127,222.329419 L169.626761,212.560992 Z M144.702195,10.9140213 L147.932828,13.3256749 L140.87929,24.9110735 L175.23961,52.6966515 L175.23961,74.8901445 L186.117808,85.1761423 L192.335704,74.8901445 L201.097266,63.2417481 L207.323774,44.359754 L205.203734,31.9200049 L209.467186,31.5184501 C209.487814,32.3686503 209.484326,33.2265369 209.456892,34.0906956 C210.232721,33.5471803 221.231647,36.6062612 218.48084,41.2947159 C219.728895,42.3801836 220.489074,44.0603532 220.640092,45.6905084 C229.747374,45.2317831 247.518271,56.1462429 255.27421,61.5286467 C259.818852,65.1398392 262.278186,70.3464112 264.106059,75.7249076 L264.536445,77.036985 L264.98079,78.3839205 L265.428483,79.7298145 C267.901839,87.1285733 270.572526,94.4604034 274.189484,101.400634 C274.268123,101.408058 274.34598,101.420953 274.423836,101.431893 C276.821354,99.3281647 279.787735,101.35062 282.434473,101.582327 C283.201048,100.852994 284.452107,100.667165 285.125282,101.660207 L285.172369,101.733152 L252.196278,108.227547 L230.441597,184.516625 L211.496308,169.142638 L201.327266,170.654506 L174.472714,180.337473 L143.23917,188.448272 L71.9371616,208.100417 L62.8570915,208.100417 L10.0208746,195.344682 L5.25922147,193.7734 C6.83163707,174.916622 12.8665058,156.465824 20.2928094,139.12982 C22.3972886,133.047996 22.5424386,126.240965 24.5354144,120.02043 C39.2773325,53.8026017 69.5618988,56.6131275 122.823338,33.0587126 C116.865928,27.5301731 131.401266,11.6498034 132.724831,13.3256749 L132.808262,13.3184396 L132.988644,13.3087867 L133.221051,13.3006785 C135.298872,13.2402754 142.46287,13.2860768 143.235242,13.3730322 C143.683257,12.5027224 144.173429,11.683876 144.702195,10.9140213 Z" id="👕-Top" fill="#FFFFFF"></path>
                <path d="M387.158348,93.5426374 L386.176109,99.014797 C385.942668,99.0912233 385.705157,99.1559419 385.464566,99.2091852 C385.155863,102.471351 384.792793,105.73726 384.383695,109.005865 L378.293981,142.937279 C377.243626,148.94026 376.246513,154.95602 375.256692,160.973899 L373.945041,167.437901 L373.132737,171.455379 C371.379193,180.155708 369.675688,188.827683 368.180763,197.451437 C368.406389,197.776212 368.58141,198.128389 368.708842,198.498263 L368.5938,198.984341 L368.513813,199.308447 L368.43198,199.6286 C367.252493,204.161412 365.200155,208.556985 360.363573,209.890866 C356.715313,210.896497 352.71235,210.987638 348.945185,211.384557 L348.527612,211.429979 L282.608073,218.84109 C274.642963,219.736347 266.681605,220.658612 258.720998,221.590679 L251.819967,222.399848 C242.201176,223.513391 232.527067,224.389716 223.049929,226.40537 C222.701686,226.47961 222.413242,226.618712 222.177953,226.801577 C224.08645,219.579583 225.91326,212.366967 227.568879,205.071905 C229.432429,196.861346 231.201003,188.634767 233.194312,180.453904 C237.209855,163.972612 241.711217,147.599555 246.638992,131.367163 C247.673103,127.96026 248.731099,124.560142 249.812301,121.167938 L250.57096,118.796729 L251.15493,116.907174 C252.058477,114.026096 253.176594,111.064923 255.826196,109.475725 C258.926966,107.615701 263.155418,107.307351 266.672243,106.6641 L269.053727,106.21688 C272.616814,105.552301 276.184469,104.912957 279.756467,104.298849 C296.858284,101.358161 314.057031,98.9992812 331.319094,97.2272884 C349.281577,95.3831353 367.306652,94.1848571 385.353583,93.5991658 L387.158348,93.5426374 Z M223.5438,206.677858 L223.71202,206.691901 L221.249696,226.369813 C220.856115,226.094343 220.356224,225.925545 219.746115,225.927108 C211.6694,225.950882 203.92717,223.370236 196.438587,220.53316 L195.298218,220.098705 L192.118822,218.877025 C188.88699,217.63912 185.637848,216.428523 182.328172,215.424485 L180.99026,215.02084 L180.310186,214.820065 C177.804312,214.088747 175.168302,213.423967 172.561705,213.258518 L172.206457,213.239092 L172.965478,212.840931 C173.076478,212.782711 173.173798,212.717458 173.260175,212.647125 C174.694967,212.753406 176.132496,212.724491 177.645848,212.451757 C180.491981,211.9395 183.259555,210.949763 185.80083,209.571633 L186.93583,208.956637 L187.400455,208.710201 L187.707403,208.551113 L188.012649,208.396787 C190.195248,207.309088 192.282243,206.628045 195.038062,207.207283 C198.166462,207.865612 200.907962,209.55112 203.728017,210.975481 L204.228507,211.224618 L204.564998,211.387159 L204.908051,211.548471 L205.255207,211.707041 C209.068731,213.42257 215.137912,215.274063 216.600203,210.090532 C217.187643,208.007904 216.727619,206.057735 215.708295,204.347869 C217.607802,204.183505 221.001211,206.422409 223.5438,206.677858 Z M318.471312,141.843692 L318.517266,142.079787 C319.056514,144.982009 317.704203,147.758264 315.657815,149.782212 C313.979135,151.442063 311.008322,152.364594 310.166833,154.752388 C309.687656,156.110981 310.197318,157.399241 311.181466,158.297546 L310.954796,158.409463 L310.733197,158.522702 L310.516852,158.637063 L310.305909,158.752357 L310.100486,158.86841 C306.757192,160.788561 304.034487,163.911278 307.049843,167.683052 C310.470451,171.961882 317.617877,172.100523 322.653637,171.765736 L322.992879,171.741998 C327.875826,171.375957 333.660001,169.736246 336.307723,165.228832 C337.522079,163.161051 337.38841,160.660333 335.69566,158.890685 C334.674382,157.823191 332.852653,156.726783 331.182181,156.597058 C331.255269,155.656163 331.143097,154.747309 330.812051,153.980292 C330.096023,152.322394 328.190653,151.206058 326.352899,151.165812 C326.501711,147.645409 323.68127,144.170485 321.604546,141.356179 L321.392518,141.067425 L321.186709,140.783536 C320.233865,139.458156 318.19506,140.200683 318.471312,141.843692 Z M321.257843,145.590775 L323.149924,152.676402 L323.11743,152.734681 C322.450955,153.999939 324.198053,155.4362 325.234332,154.37308 L325.338662,154.26067 C326.568548,152.990802 328.456398,154.697768 328.479878,156.049245 C328.513491,157.951854 327.274572,159.422892 325.798461,160.394695 L325.695105,160.461684 L325.422956,160.630713 C324.211552,161.431083 325.128675,163.104459 326.460382,162.90082 C328.108185,162.648795 329.458554,161.34217 330.291054,159.710842 C331.180618,159.965603 332.192906,159.934735 333.129762,160.458713 C335.490517,161.778643 334.132787,164.087754 332.59549,165.483376 L332.533077,165.539451 L332.407871,165.648483 C329.587445,168.052947 325.74742,168.88819 322.127728,169.067205 L321.919153,169.076811 C318.262797,169.233106 313.499178,169.285465 310.365382,167.135629 C308.415065,165.797745 307.850294,163.900326 309.500833,162.103326 C310.434171,161.0878 311.376498,160.063287 312.346576,159.073159 C313.798565,159.765936 315.095389,159.484996 316.580209,158.829339 C316.770551,158.74494 316.665023,158.453841 316.47859,158.453841 C315.659378,158.453059 312.653389,156.932701 312.507213,155.961329 C312.372153,155.062243 314.034988,154.304261 314.84358,153.869878 L314.960882,153.805628 L315.062558,153.746631 C315.908347,153.234375 316.704498,152.63811 317.432252,151.968386 C319.279305,150.268611 320.62083,148.136697 321.206673,145.803438 L321.257843,145.590775 Z" id="💻-Computer" fill="#FFFFFF"></path>
                <path d="M144.249895,9.84029982 C145.908251,5.67386994 151.514142,7.29347529 150.88918,11.6705125 C150.515142,14.2923585 149.078786,17.0615125 147.788606,19.3594375 C146.738015,21.229896 145.539684,23.0554198 143.914941,24.4573846 C146.807195,27.1550337 149.809276,29.754217 152.887571,32.2221126 C156.246494,34.9146821 159.778561,37.3966442 163.429445,39.6777675 C166.630856,41.6783416 169.976881,43.4507251 172.994596,45.7334114 C175.800473,47.8555046 178.356599,50.4077995 179.657332,53.7396149 C181.042963,57.2876429 180.440789,60.9517786 179.42044,64.4974119 L179.303226,64.8982855 C178.260842,68.4110121 176.456311,72.6454303 178.958501,75.9549737 C180.232265,77.6398321 182.084089,78.8331433 183.683036,80.1800141 C185.104149,81.3772326 186.438103,82.6791687 187.661448,84.0776168 C190.328966,87.1261478 192.498547,90.556429 193.867677,94.3786195 L193.990114,94.7258612 C195.163628,98.1094148 196.021272,102.254382 194.435575,105.576364 C193.980631,106.52859 192.513399,106.219126 192.258568,105.291907 C191.682462,103.191304 191.712557,100.991454 191.229473,98.8611557 C190.726846,96.6456762 189.890437,94.542729 188.798026,92.5530956 C186.684397,88.7040368 183.821897,85.4161986 180.439991,82.6365588 L179.427612,81.8135074 C176.789338,79.6489704 174.365343,77.3526801 173.829832,73.7703624 C173.256853,69.9376221 174.792874,66.2865744 175.78054,62.658971 C176.468818,60.1309019 176.693554,57.7075503 175.949776,55.4229104 C175.041061,56.9057577 173.8013,58.3131928 172.82067,59.5686312 C170.867617,62.0697395 168.896195,64.555609 166.929853,67.0461674 C164.913874,69.6000252 162.947533,72.1941289 161.074994,74.8554394 C160.237413,76.0460154 159.408821,77.2436247 158.582966,78.4424061 C157.961913,79.3434459 157.0958,80.2437043 156.418856,81.162718 C156.583402,81.6542652 156.570895,82.2208341 156.27268,82.6232933 C152.682768,87.4723409 147.575596,77.354594 146.243596,74.7983918 C143.531131,69.5926012 141.512416,64.062108 138.790962,58.8574896 C135.971015,53.4621915 132.759832,48.2106847 129.180864,43.2850526 C127.015973,40.3056821 124.589606,37.5072228 122.609195,34.4332939 C117.943677,38.6626325 111.804283,41.497821 106.16517,44.0688712 C99.9693449,46.8933424 93.5324545,49.2007293 87.1799708,51.6509096 L85.3034886,52.3795321 C74.3579704,56.650055 63.1449708,61.3417374 54.0471523,68.9271759 C43.3563671,77.8410617 37.0317121,90.2649391 32.3232016,103.130349 C26.9029621,117.94124 22.4187966,133.151854 18.2387086,148.3527 C16.0996135,156.130323 14.0699551,163.943111 12.1618495,171.780907 C10.480434,178.686013 9.08668044,185.65989 7.14027199,192.493882 C11.0878072,192.354389 15.5899516,193.882171 18.9602086,194.323313 C34.320029,196.333265 49.4730924,199.537309 63.9746171,205.084604 C65.76586,205.769957 66.2841206,207.55836 65.8940572,209.007995 C66.9270607,208.716505 67.9592826,208.421108 68.9922861,208.131181 C67.860532,206.397552 68.4007047,203.29809 68.4896822,201.376557 L68.4951311,201.244439 C68.5865889,198.683939 68.8644797,196.120704 69.0446593,193.564892 C69.3877612,188.692821 69.8344346,183.856374 70.428332,179.012218 L70.5798987,177.800994 C71.252934,172.530732 71.7504797,167.229601 72.4848776,161.968326 L72.5716452,161.3662 C72.2194938,160.020111 71.8094973,158.690432 71.3791769,157.366615 C70.2324375,153.840212 68.613948,150.520901 67.1955713,147.105467 C67.0282896,146.703399 67.6012685,146.472473 67.8689973,146.713558 C70.2711311,148.873944 72.1792368,151.614574 73.7121311,154.481021 C73.7387086,154.345826 73.7621593,154.21024 73.7899093,154.075045 L73.9648281,153.214331 C74.3961714,151.115272 74.9208373,148.906777 76.2088495,147.204324 C76.3460361,147.023413 76.6172826,146.985511 76.7470431,147.204324 C77.9797685,149.289688 78.1177368,151.93068 78.3072966,154.303627 C78.5218706,156.987991 78.5488389,159.706349 78.5109269,162.398137 C78.4370572,167.658631 78.0661452,172.933972 77.7706664,178.18587 C77.4807973,183.34691 76.9115321,188.442187 76.1778959,193.552489 L76.038441,194.510867 C75.6798081,196.943238 75.386202,199.405815 74.91317,201.821551 L74.779529,202.479169 C74.5266523,203.677169 74.3710959,205.366325 73.8676875,206.769462 C86.8195114,203.157879 99.7912685,199.628741 112.787649,196.161731 C122.180828,193.655543 131.583779,191.186866 140.982821,188.702559 C141.478804,187.808944 142.096339,186.974329 142.867085,186.228412 C145.406406,183.769894 148.771582,182.673095 151.858085,184.565435 C152.109008,184.719776 152.130114,185.112858 151.858085,185.261728 C151.266737,185.584868 150.674216,185.916213 150.092247,186.261625 L155.73605,184.733452 C159.954441,183.590546 164.223251,182.162402 168.540916,181.365689 C176.493441,177.442297 185.046695,174.60242 193.424068,171.795755 L194.411249,171.461933 C198.70067,169.999959 203.137433,168.363297 207.569142,167.552741 C210.813547,166.959602 214.621941,167.675432 215.926582,170.998261 C217.578293,172.086464 219.132293,173.365346 220.631966,174.623129 C221.71617,175.531983 222.755427,176.498276 223.812272,177.439171 L224.007106,177.610166 C224.871095,178.359591 225.555522,178.861508 225.76767,180.054375 C225.877106,180.670567 225.48548,181.503619 224.725286,181.421955 C222.399367,181.173055 220.508068,178.477751 218.930617,176.868304 C217.711962,175.624197 216.483536,174.337891 215.371191,172.970702 C214.722779,173.323537 213.833997,173.260238 213.421265,172.478764 C211.280997,168.42721 205.41793,171.234657 202.173916,172.195479 L197.526793,173.570574 C195.203382,174.259103 192.880871,174.951035 190.5623,175.655066 C184.189962,177.589605 177.848892,179.754679 171.418709,181.531361 C171.994033,182.163574 171.914691,183.288115 170.821888,183.715972 C165.788585,185.690367 160.266726,186.711363 155.03761,188.066049 C151.736142,188.922154 148.436628,189.783338 145.138286,190.649602 C144.572733,191.56549 144.165864,192.601725 143.994673,193.807931 C143.365237,198.243004 144.579197,203.360114 145.761705,207.649661 L145.939832,208.289666 C146.911894,211.738401 148.342009,215.966112 151.318328,218.14382 C152.044909,218.674831 152.97004,219.044469 153.902596,219.128087 C159.728923,216.129961 165.55486,213.132225 171.384314,210.139961 C172.464219,209.585505 173.462047,210.336111 173.704371,211.228554 C175.759825,210.891348 177.810589,210.359946 179.678437,209.72617 C182.816923,208.66063 185.267522,206.628406 188.209804,205.222925 C193.902884,202.504145 199.716633,205.843743 204.81388,208.382702 L205.988668,208.959939 C208.274466,210.068674 213.029915,212.198652 214.12674,209.166244 C215.187494,206.232589 211.833652,203.097315 209.667589,201.777014 C207.085666,200.202734 204.079286,199.360305 201.161237,198.658541 C199.495064,198.257645 197.808568,197.930598 196.111909,197.691858 C194.187388,197.421077 192.19955,197.461713 190.346554,196.837706 C189.425723,196.528242 189.284237,195.066104 190.346554,194.824629 C193.198975,194.175657 196.603449,194.883545 199.58006,195.606937 L201.135832,195.990197 C204.134786,196.725955 207.162663,197.649267 209.894279,199.116876 C211.880554,200.18437 213.977047,201.805929 215.346568,203.790873 C216.535879,202.68641 218.016101,202.723749 219.558013,203.133377 L220.394924,203.365961 C221.776902,203.748833 222.89708,204.012365 224.241811,203.747111 C224.421599,202.769096 224.603733,201.79069 224.798765,200.812284 C226.715078,191.194681 228.816652,181.613807 231.135536,172.084119 C235.135394,155.646691 239.763736,139.389669 244.981596,123.299241 L245.505346,121.690753 C246.708758,118.0104 247.677272,114.000656 249.617427,110.619608 C251.452445,107.422597 254.392381,105.581053 257.885364,104.605773 C261.849314,103.499205 266.01455,102.920133 270.058233,102.172653 C270.960304,102.006199 271.864719,101.84795 272.767571,101.684231 C272.004577,100.307013 271.435068,98.7436813 270.922076,97.5439413 L270.832106,97.3361087 C269.730041,94.824177 268.740046,92.2669862 267.784052,89.6961544 L267.068932,87.7634617 C265.342835,83.1094719 263.560964,78.5319129 261.134068,74.1790735 C258.579504,69.5980715 255.190487,65.8528562 250.965842,62.7531387 C242.352399,56.4325751 231.970381,53.2086031 223.616068,46.4539306 C223.273687,46.1772887 223.712606,45.7041061 224.060068,45.8791563 C229.701135,48.7127819 235.790892,50.6395066 241.658258,52.9464185 L242.815689,53.4029688 C247.453207,55.2408639 252.162941,57.2416414 256.17698,60.2172548 C260.652156,63.5353944 264.176797,67.656108 266.825945,72.5563422 C269.43679,77.3866345 271.106871,82.7932639 272.948923,87.9525568 L273.441593,89.3272728 C274.184585,91.3886861 274.952004,93.4439407 275.831406,95.4500206 C276.529455,97.0426651 277.832142,98.8607649 278.424272,100.680037 C280.044325,100.399097 281.663987,100.117375 283.285603,99.8465947 C318.409677,93.983975 353.926159,90.5392365 389.521592,89.5315255 C390.914173,89.4920611 391.634501,90.8205673 391.429307,92.0349782 C388.013321,112.228663 384.977628,132.491509 381.646846,152.700432 C380.192902,161.520541 378.710036,170.334008 377.192385,179.143176 C376.423592,183.606175 375.534811,188.051982 374.806666,192.521624 C374.218835,196.131254 373.792033,199.769016 372.782871,203.295028 C371.877673,206.456482 370.48861,209.505013 368.207247,211.917033 C365.74805,214.516998 362.315649,215.775562 358.860578,216.370264 C350.089624,217.879291 341.093152,218.495483 332.251064,219.50085 L285.174948,224.85512 C285.862889,231.106375 285.914302,237.260374 285.598659,243.584405 L285.418768,247.036705 C285.271707,249.813527 285.0959,252.594525 284.696945,255.342775 C284.196663,258.790248 282.619212,261.709445 280.295638,264.284403 C278.162015,266.649144 275.56993,268.66691 273.048589,270.600278 C270.43149,272.607885 267.727233,274.54555 264.65011,275.786922 L264.250715,275.945398 C261.551201,276.999081 256.487189,278.630732 252.797342,278.034442 C253.279645,280.45037 254.212983,283.04799 253.385564,285.43852 C253.001754,286.548604 251.549765,287.102278 250.660202,286.157867 C248.897881,284.285845 248.760304,281.813261 248.342881,279.371154 C247.908652,276.829799 247.534223,274.279458 247.201614,271.722865 C246.558283,266.77965 246.05761,261.791109 245.90479,256.806085 C245.74767,251.686648 245.808251,246.560177 246.084187,241.446209 C246.226064,238.820065 246.401945,236.195484 246.735335,233.586141 C246.877603,232.473322 247.022997,231.359721 247.189106,230.249637 C247.249687,229.844833 247.316913,229.441983 247.389219,229.039915 L243.163864,229.516495 C236.684941,230.239592 230.202938,230.892567 223.678212,230.993991 C222.905511,231.005713 222.311036,230.65405 221.922536,230.141794 C221.508631,230.815815 220.787913,231.297985 219.755691,231.294077 C210.64392,231.260083 202.158673,228.281494 193.871195,224.771112 C189.693842,223.001073 185.581371,221.084898 181.397765,219.330098 C177.492832,217.692128 173.318216,216.523433 169.507476,214.678372 L159.494026,219.929098 C159.420547,220.187375 159.326353,220.431586 159.226297,220.635941 C158.574367,221.966401 157.288878,222.688092 155.976029,223.231608 C154.715945,223.754414 153.410913,223.916961 152.139494,223.784891 C144.545276,227.763377 136.9493,231.738126 129.348267,235.703534 L121.745427,239.66562 C106.597835,247.550304 91.5100431,255.564323 76.2670854,263.263798 L75.1448959,263.828548 C69.8799195,266.467842 64.2263995,269.143193 58.3835783,271.139495 C58.2796135,272.618044 58.3452755,274.055957 58.4691734,275.620859 L58.4989989,275.96176 C58.673204,277.811054 59.0467275,280.128241 57.5628037,281.444796 C56.7908847,282.129367 55.4119833,282.132102 54.8870783,281.099775 C53.9345889,279.227753 54.7897579,276.276516 55.0914903,274.242729 C55.1985818,273.519475 55.3291241,272.775902 55.5222016,272.054601 C48.8238987,274.048142 41.9227473,275.014826 35.1064093,273.895364 C28.46986,272.806379 23.3298565,268.626664 19.1861171,263.51426 C14.8129516,258.119353 11.7053424,251.832002 10.0379973,245.092177 C8.14044452,237.422789 8.01654663,229.502548 8.06110297,221.646778 C8.10839523,213.281487 8.41794452,204.874778 9.43570509,196.565753 C8.3206241,196.303569 7.0839903,196.076941 5.95718396,196.155088 C5.3990572,197.047923 4.31641635,197.423812 3.33813114,197.307763 C1.21076142,199.653358 6.60676847,202.05053 8.33117692,202.650702 C8.92995156,202.859356 8.86585297,203.83151 8.17522973,203.802205 L7.74021024,203.781532 C5.0756781,203.639817 2.32285716,203.185008 0.756208607,200.70952 C-0.49918576,198.725357 -0.122020267,196.374683 1.37452551,194.75664 C2.36297269,185.413334 4.72602199,176.315021 6.9253072,167.200687 C9.08355368,158.25476 11.4837333,149.366272 14.0277438,140.522719 L15.1682394,136.564518 C19.1737364,122.697817 23.3604784,108.719232 28.8857192,95.4035229 C31.6446945,88.7547401 34.8230466,82.2282581 39.1313318,76.4308915 C43.1472649,71.0266064 47.8886065,66.4022326 53.3385502,62.4526619 C63.4985735,55.0889393 75.4203096,50.6396042 87.1339205,46.4005682 L87.6582649,46.2108921 C93.7284797,44.015731 99.7838424,41.7943905 105.784878,39.4159737 C111.092163,37.3126358 116.176666,34.6458549 121.458937,32.5108673 C121.287356,32.1994498 121.121638,31.8845157 120.962173,31.566065 L120.86452,31.6481777 C120.847829,31.6614483 120.830719,31.6742992 120.812871,31.686412 C120.281712,32.0544864 119.499631,31.8735751 119.061885,31.460566 C117.825865,30.2945984 118.244321,29.0002926 119.069357,27.7910907 L119.176793,27.6372033 C120.185955,26.2239071 121.086071,24.7297284 122.017455,23.2652457 L122.600695,22.3494115 C124.164058,19.9027647 125.806959,17.4397894 127.891466,15.4176814 C128.856853,14.4806938 129.913698,13.7797114 131.033469,13.2572959 C130.937712,13.0548941 131.777247,12.6411035 132.015272,12.8493664 C135.562973,11.5513377 139.644568,11.8232907 143.512371,12.1812059 M282.897103,225.113788 L277.964638,225.674496 C272.538145,226.291783 267.109542,226.888673 261.680263,227.479767 L249.887501,228.760929 C249.857406,229.432996 249.775719,230.090216 249.760867,230.597784 C249.683871,233.21455 249.626416,235.832489 249.572089,238.450037 C249.463043,243.696855 249.582642,248.948753 249.928149,254.185411 C250.263054,259.259621 250.704106,264.334518 251.389462,269.374364 L251.529832,270.381856 L251.611128,270.911695 C252.170427,270.965617 252.719955,271.231318 253.176853,271.777178 C254.17429,272.967754 257.786089,271.81039 259.196649,271.308684 C261.516314,270.483447 263.700747,269.089297 265.716335,267.69124 C267.684723,266.326142 269.457153,264.734336 271.16038,263.057527 L272.553956,261.679638 C273.940206,260.302476 275.327957,258.835358 276.177304,257.103045 C277.329124,254.753934 277.478036,251.870294 277.815726,249.311747 C278.231585,246.164751 278.726786,243.018145 279.250128,239.886777 M139.709057,192.080091 L139.197441,192.214505 C120.612367,197.151468 102.055043,202.234177 83.4129058,206.953109 C74.1873987,209.288935 64.9181171,211.454791 55.6812755,213.745683 L54.1858069,214.1196 C46.8989257,215.960787 39.5245671,218.176727 33.9444269,223.46058 C33.7384516,223.655167 33.4394551,223.356253 33.6333142,223.149553 C39.6472473,216.749279 48.2005009,214.039908 56.4129375,211.691187 C57.9309797,211.257078 59.4509762,210.833128 60.9694093,210.401364 C49.8006206,206.420925 38.4555607,202.957822 26.8486347,200.487972 C23.8598424,199.851852 20.8362649,199.384921 17.8498178,198.746457 C15.7670435,198.300899 13.7330232,197.656898 11.6722515,197.122658 L10.0512861,196.715015 L10.0297585,201.83665 C10.0027814,209.09071 10.0156633,216.338856 10.3858495,223.591867 L10.4559251,224.935442 C10.8878331,233.007021 11.5620051,241.246193 14.4271875,248.856929 C16.7554516,255.041516 20.4665255,260.867798 25.3196487,265.372606 C27.7753283,267.651775 30.4154868,269.426113 33.6790431,270.302145 C36.7092649,271.115269 39.8840995,271.210609 42.9991347,270.99375 C57.9407509,269.951654 71.2412086,261.837216 84.2203917,255.118882 C105.449923,244.130182 126.6818,233.146953 147.932828,222.200452 C147.358286,221.807762 146.817356,221.355288 146.325283,220.846939 C143.475631,217.904689 141.972441,213.87697 140.985166,209.976242 C139.934184,205.824269 139.305705,201.374164 139.232617,197.087778 M166.748931,226.442334 C166.936536,226.341523 167.153846,226.467732 167.162445,226.679511 C167.228107,228.302121 166.331143,229.902512 165.660959,231.364272 L165.590075,231.520353 C164.775945,233.331029 163.884427,235.117479 162.962424,236.875796 C161.119589,240.388914 159.204448,243.86452 157.205667,247.290894 C153.186216,254.183887 148.719639,260.786563 143.440103,266.788285 C142.247635,268.144143 140.286374,266.405754 141.051649,264.94596 C144.741227,257.908784 149.042477,251.2643 153.46997,244.677644 C155.686452,241.379823 157.901371,238.078876 160.139741,234.795902 C161.073535,233.426043 162.019271,232.061068 162.990521,230.716806 L163.576441,229.912861 M387.167923,93.5619789 C368.517969,94.1250311 349.889902,95.341005 331.32867,97.2466299 C314.066606,99.0186227 296.86786,101.377503 279.766043,104.31819 C276.194045,104.932299 272.626389,105.571642 269.063303,106.236221 L266.926001,106.637996 C263.362276,107.31319 259.008652,107.591786 255.835772,109.495066 C252.490529,111.501501 251.586504,115.694892 250.473378,119.152916 C249.164828,123.219708 247.889501,127.298222 246.648568,131.386504 C241.720793,147.618896 237.21943,163.991953 233.203888,180.473245 C231.210578,188.654108 229.442004,196.880687 227.578455,205.091246 C225.922835,212.386308 224.096026,219.598925 222.187529,226.820919 C222.422818,226.638054 222.711261,226.498951 223.059504,226.424711 C232.536642,224.409057 242.210751,223.532733 251.829543,222.419189 L252.760212,222.31064 C262.710737,221.140773 272.661261,219.979503 282.617649,218.860432 L348.537187,211.449321 C352.424923,211.012477 356.589768,210.953085 360.373149,209.910207 C366.805583,208.136206 368.313305,200.946747 369.392543,195.221177 L369.425121,195.04813 C372.678906,177.749026 375.269036,160.299488 378.303557,142.956621 M223.721596,206.711242 C221.162342,206.542444 217.659589,204.199193 215.717871,204.36721 C216.737195,206.077076 217.197219,208.027245 216.609779,210.109874 C214.974874,215.905287 207.581258,212.90677 204.019878,211.13634 C201.099874,209.68397 198.280318,207.906898 195.047638,207.226625 C191.38542,206.456873 188.904335,207.912759 185.810406,209.590975 C183.269131,210.969105 180.501557,211.958842 177.655423,212.471098 C176.142071,212.743833 174.704543,212.772747 173.269751,212.666467 C173.183374,212.736799 173.086054,212.802053 172.975054,212.860272 L172.216033,213.258434 C175.648043,213.41551 179.143761,214.474407 182.337747,215.443826 C185.647423,216.447864 188.896565,217.658462 192.128398,218.896367 L195.307793,220.118047 C203.150265,223.120405 211.268295,225.971432 219.755691,225.946449 C220.3658,225.944886 220.865691,226.113685 221.259272,226.389154 M209.402713,188.552126 C211.93109,188.243053 214.264826,188.574398 216.285104,190.219792 C218.721632,192.203955 220.358491,195.494743 223.861245,195.71082 C224.882523,195.773729 225.119766,197.209297 224.104741,197.509383 C221.497414,198.281089 219.38646,196.870919 217.610069,195.039925 L216.41572,193.792413 C214.660251,191.975197 213.041212,190.570334 210.06246,190.678908 C206.872382,190.795347 203.676833,191.532278 200.50747,191.906995 C196.917167,192.331335 193.327646,192.693158 189.726009,193.005357 C189.558727,193.019814 189.530196,192.756457 189.686924,192.717774 L193.720916,191.714104 M206.96212,178.218614 L207.379115,178.176891 C211.050617,177.820485 214.408337,177.806656 217.6873,179.781171 L218.316201,180.16138 C221.27252,181.957737 224.490297,184.07407 226.339046,186.982457 C226.64156,187.458765 226.14167,188.018691 225.635525,187.897563 C222.082353,187.044974 219.484796,184.438758 216.496786,182.488198 C213.143335,180.299289 209.679275,180.66033 205.855638,181.000271 C202.153553,181.329663 198.453423,181.782136 194.787687,182.39911 C191.34317,182.978183 187.887708,183.892507 184.408405,184.183997 L184.409187,184.176964 C184.011698,184.176183 183.785008,183.579527 184.190314,183.377125 C187.721208,181.61451 191.81062,180.780286 195.651455,179.974977 M318.495546,141.940704 C318.140658,140.243733 320.228553,139.456788 321.196285,140.802878 L321.402094,141.086767 C323.492802,143.950231 326.516418,147.543358 326.362475,151.185154 C328.200229,151.2254 330.105598,152.341736 330.821627,153.999633 C331.152672,154.76665 331.264845,155.675505 331.191757,156.6164 C332.862229,156.746124 334.683958,157.842533 335.705236,158.910026 C337.397986,160.679675 337.531655,163.180392 336.317299,165.248173 C333.669577,169.755588 327.885402,171.395298 323.002455,171.76134 L322.828454,171.773874 C317.784989,172.122411 310.517616,172.028244 307.059419,167.702393 C303.723556,163.529711 307.410398,160.151398 311.191042,158.316888 C310.206894,157.418583 309.697232,156.130323 310.176408,154.77173 C311.017898,152.383935 313.988711,151.461405 315.667391,149.801554 C317.713779,147.777605 319.06609,145.001351 318.526842,142.099128 M321.267419,145.610117 C320.711246,148.026435 319.344852,150.236444 317.441827,151.987728 C316.714074,152.657451 315.917922,153.253716 315.072134,153.765972 L314.970457,153.824969 C314.219839,154.246232 312.374803,155.035477 312.516789,155.98067 C312.662965,156.952043 315.668954,158.472401 316.488165,158.473182 C316.674598,158.473182 316.780127,158.764282 316.589785,158.848681 C315.104965,159.504338 313.808141,159.785278 312.356151,159.092501 C311.386074,160.082629 310.443746,161.107141 309.510408,162.122667 C307.85987,163.919667 308.424641,165.817087 310.374958,167.15497 C313.508753,169.304806 318.272373,169.252447 321.928729,169.096152 C325.608926,168.939076 329.542781,168.118528 332.417447,165.667825 L332.542653,165.558792 C334.104989,164.169685 335.531995,161.815822 333.139338,160.478055 C332.202482,159.954076 331.190193,159.984944 330.30063,159.730184 C329.46813,161.361511 328.11776,162.668136 326.469958,162.920162 C325.138251,163.123801 324.221128,161.450425 325.432532,160.650055 L325.704681,160.481025 C327.225835,159.51042 328.523848,158.015442 328.489454,156.068586 C328.465974,154.717109 326.578124,153.010143 325.348238,154.280011 L325.291951,154.340747 C324.262815,155.500466 322.450117,154.03905 323.127006,152.754023 L323.1595,152.695743 M81.2419169,78.4113816 C81.2373449,78.1210639 81.645778,78.012439 81.7884364,78.263683 C84.1772815,82.4652792 85.4260315,87.6155851 86.698623,92.2446478 C88.0314047,97.0936954 89.1074012,101.991976 90.0739611,106.926204 C92.031704,116.917743 93.0748695,126.851843 93.1457023,137.035234 C93.1553836,138.489167 90.7860808,138.875997 90.5543097,137.386116 C89.0155526,127.480539 87.541285,117.564804 85.9908026,107.661962 C85.2106759,102.681236 84.3027428,97.7196562 83.4338942,92.7537782 M104.891289,85.7296924 C104.715408,85.1502293 105.558852,84.9564237 105.774598,85.4862632 C110.568704,97.2509671 112.192274,110.583699 109.11437,122.995463 C108.643401,124.894055 105.861757,124.071554 106.217035,122.196797 M166.729779,75.2759898 C166.705547,74.8422716 167.268755,74.7738926 167.480984,75.0724157 C169.752575,78.272162 170.694903,82.5573759 174.68035,84.2109754 C176.670142,85.0366029 178.909293,84.8928117 180.667315,86.2873525 C181.842586,87.220042 182.743874,88.6923394 181.861737,90.1048541 C181.577202,90.561235 180.78066,90.7898163 180.394505,90.2939709 C179.830906,89.5714979 179.532691,88.7064059 178.767026,88.1648443 C177.687121,87.4009532 176.230832,87.3536741 174.992635,86.9945866 C173.390952,86.5303909 171.97922,85.7180485 170.8231,84.5110615 M204.680132,21.9075905 C204.914248,21.7884157 205.138984,21.8646094 205.288678,22.0670112 C205.50247,22.3553752 205.476284,22.6359245 205.214417,22.8336375 C205.564224,23.5482956 205.977347,25.3386531 206.036365,25.5992748 C206.275562,26.6558279 206.530002,27.7061293 206.796167,28.7556492 C207.333189,30.8722722 207.803766,33.0053061 208.341178,35.1227105 C208.91103,37.3671045 209.589928,39.5876635 210.345431,41.7761821 C210.394157,41.9178895 210.447746,42.062549 210.503999,42.2093504 L210.590101,42.4310575 L210.611206,42.3974542 C210.764808,42.1548064 211.08452,42.3243863 211.046608,42.5807099 C211.011431,42.8143707 210.964139,43.0468592 210.924273,43.28052 L211.003439,43.4898482 C211.497633,44.8195906 211.836076,46.2200549 210.929354,47.3934189 C210.590101,47.8322167 210.216843,48.0920569 209.751738,48.1694228 C209.006005,50.6271593 208.070322,53.0391795 207.068586,55.3554692 L206.774986,56.0319277 C205.301455,59.411873 203.729915,62.7474095 201.383745,65.6248221 C198.822146,68.7663485 195.298678,70.9114953 193.067343,74.3538892 C192.029259,75.95513 191.306977,77.6388162 190.72071,79.4471476 L190.500168,80.1335464 C190.084039,81.4125886 189.603935,82.6523168 188.40378,83.4025794 C188.020752,83.6417105 187.446991,83.5655168 187.138224,83.2392513 C184.677072,80.6365513 187.253523,75.7765631 188.737562,73.2566994 C190.800442,69.752569 193.786108,67.5109101 196.775681,64.8671828 C199.998199,62.017537 202.053653,58.2055057 204.041882,54.4501313 C205.259755,52.1494711 206.435417,49.7991874 207.673224,47.488368 C206.380021,46.3457033 205.966061,44.0759452 205.527931,42.498284 L205.488009,42.3568175 C204.763773,39.8303113 204.188449,37.2381613 203.824963,34.6346799 C203.475134,32.131388 203.329226,29.6640927 203.421778,27.1467932 L203.448487,26.505546 M209.488426,33.8218685 C209.202718,33.4303499 209.67564,32.9868633 210.067658,33.0685273 C212.451112,33.5612334 214.78137,35.0035505 216.920531,36.1698256 L217.148989,36.2936715 C218.856591,37.2142482 220.574746,38.3419155 221.471345,40.1303193 C222.446515,42.0740588 222.366178,44.3128325 222.233186,46.4251598 L222.220595,46.6228072 C222.057612,49.1559559 222.031426,51.7879611 221.495186,54.2753936 C221.220813,55.5484151 220.067429,55.9071118 219.081327,55.6062442 C217.90801,59.3100414 214.612014,62.0389494 212.204408,64.961663 C209.134711,68.6877322 209.71238,73.7184726 210.033264,78.2060883 C210.163024,80.0230159 207.902376,80.5395704 206.738049,79.5701516 L204.054796,77.3420817 C203.607944,76.9701868 203.161686,76.5975539 202.716644,76.2234882 C202.33544,75.9028233 201.95771,75.5797271 201.583106,75.2525788 L201.023503,74.7586148 C200.775316,74.5366761 199.680559,73.3140596 199.360457,73.2632638 C198.585125,73.1400514 196.743092,75.1828306 196.112675,75.8235327 L196.032802,75.9034745 C194.846197,77.0666989 193.774109,78.3182299 192.775499,79.6455639 C192.591802,79.8893838 192.232616,79.686982 192.36394,79.4052605 C193.258731,77.4890613 194.299172,75.6570003 195.534538,73.9422391 L195.784225,73.6008607 C196.606172,72.4935117 197.709528,70.5382632 199.160345,70.2112162 C200.931874,69.8121678 202.700781,71.5881979 203.989698,72.5739232 L204.071313,72.63574 C204.684549,73.0956376 205.290749,73.5637407 205.895778,74.0349696 C205.832461,70.6937765 206.254573,67.3178078 207.980154,64.438466 C209.196855,62.4078052 211.019756,60.9038581 212.579619,59.1588261 C214.316144,57.2156904 215.222904,54.8275052 216.794883,52.8038776 C216.997341,52.5436467 217.276404,52.4033721 217.578528,52.3588281 C217.638931,50.7319408 217.878606,49.0889074 218.06381,47.4796341 L218.117503,46.9979148 C218.304718,45.2493662 218.747154,43.1135971 217.890813,41.4760179 C217.081907,39.929285 215.225907,38.8374943 213.851514,37.7880456 L212.729298,36.9177996 M132.13448,15.3328915 C131.416888,15.7478543 130.746198,16.264018 130.137652,16.909125 C128.222121,18.9405673 126.852599,21.4686364 125.519818,23.9005842 C124.802226,25.210335 124.11043,26.5345431 123.386976,27.841168 C123.072346,28.4096906 122.748726,28.9719613 122.421589,29.5334505 C122.270332,29.7921185 121.82086,30.3063285 121.598078,30.6232163 C121.845621,30.9699631 122.101559,31.3113872 122.362633,31.6491185 C122.462242,31.7779757 129.33359,39.2611209 131.728783,42.1898165 C135.396473,46.6758693 138.674881,51.4143383 141.477631,56.4861061 C144.222145,61.4527656 146.311603,66.7113057 148.85405,71.7740865 C150.126642,74.3087982 151.547754,76.825536 153.359321,79.0191341 C153.429283,79.1047056 153.503152,79.1855881 153.574677,79.2699874 C154.266057,77.4027157 156.037661,75.403433 156.907776,74.2554387 L156.989099,74.147033 C158.962476,71.4876762 161.046462,68.9084205 163.175786,66.3729273 C165.120631,64.0576797 167.114887,61.7924464 169.157455,59.5646038 L169.92568,58.7308908 C171.348747,57.1941217 173.156406,54.8946338 175.23961,53.7966625 C175.016437,53.3988921 174.758089,53.0054198 174.461047,52.6170271 C172.509166,50.0671744 169.750034,48.2166597 167.027492,46.5469168 L165.261906,45.4732104 C158.60663,41.4186155 152.055033,37.1761065 146.277209,31.90796 C143.220409,29.1204414 140.205821,26.2004629 137.636406,22.9491393 L136.727714,21.7995451 M143.23917,13.3256749 C140.122571,13.587078 136.757004,13.5249508 133.876867,14.5400859 C136.437293,16.9599208 138.871085,19.5727799 141.371321,22.0332515 C141.593712,20.3691022 142.048656,18.7252711 142.434029,17.1025399" id="🖍-Ink" fill="#000000"></path>
            </g>
            <g id="HEAD" transform="translate(74.663793, 0.000000)">
                <path d="M101.327731,3.0112613 C118.789547,3.0112613 139.740568,11.4920424 141.521879,11.661658 L141.569967,11.6642366 C142.507159,11.6642366 146.169166,14.459265 152.555987,20.0493219 L145.638339,33.566484 L146.198156,34.1020194 C148.877052,36.6751564 151.164026,39.0204956 152.969216,40.8693282 C167.708734,55.9651952 170.357912,115.235926 166.884301,135.905587 C163.41069,156.575247 156.976884,176.800891 127.023897,176.800891 C97.0709097,176.800891 63.7475308,158.7577 58.6142727,153.138835 C55.1921006,149.392925 51.3481081,147.59831 47.0822953,147.754989 C46.9069719,147.533357 46.7330629,147.312374 46.5605684,147.092041 L45.9329347,147.002966 C40.0291375,146.146358 35.798927,144.993374 33.2424641,143.544399 C28.2489723,140.714143 22.76052,125.835157 22.76052,122.557506 C22.76052,119.312631 14.5651074,95.7072858 14.4011992,93.2092957 L14.3987073,93.1401025 C14.3987073,91.0518723 3.69222462,81.4524179 3.69222462,78.4038197 C3.69222462,75.3552215 1.5341575,75.5401814 3.69222462,64.7973941 L4.31920433,61.641477 C6.61572662,50.2035725 11.1106484,31.2640569 28.2489723,23.0342668 C47.0822953,13.9905414 83.6895321,3.0112613 101.327731,3.0112613 Z" id="✋-Skin" fill="#FFDBB4"></path>
                <path d="M101.324775,3.1260789 C118.786591,3.1260789 139.737613,11.60686 141.518923,11.7764756 L141.567011,11.7790542 C142.504204,11.7790542 146.16621,14.5740826 152.553031,20.1641394 L151.000474,23.1959146 C116.619886,23.8723486 92.9563539,26.6717452 80.009879,31.5941043 C65.0008532,37.3006626 55.5788708,58.9807818 51.7439319,96.6344619 C46.4999878,99.1224944 41.2560438,102.397242 36.0120997,106.458704 C30.7681556,110.520166 29.4407637,112.617919 32.0299238,112.751963 C31.8043503,121.455818 32.4995571,127.534022 34.1155442,130.986578 C35.7315314,134.439133 41.3249655,136.470944 50.8958467,137.082011 L53.327305,145.239428 L52.9916844,149.020284 C51.1202406,148.177265 49.1494589,147.793773 47.0793394,147.869807 C46.9040159,147.648175 46.7301069,147.427192 46.5576124,147.206858 L45.9299788,147.117784 C40.0261815,146.261176 35.7959711,145.108192 33.2395081,143.659217 C28.2460163,140.82896 22.757564,125.949975 22.757564,122.672323 C22.757564,121.163079 20.9846246,115.24919 19.0714992,109.103152 L18.7836831,108.180027 C16.6683148,101.405323 14.4821032,94.6021547 14.3982432,93.3241133 L14.3957514,93.2549201 C14.3957514,92.2468089 11.9005426,89.4881628 9.31929206,86.5611026 L8.76572796,85.9318742 C6.18447747,82.988827 3.68926865,79.9903743 3.68926865,78.5186373 C3.68926865,77.9006782 3.60059716,77.4155808 3.47717603,76.9453994 L3.42608207,76.7578428 C2.92551152,74.9783006 2.02697371,73.1870614 3.68926865,64.9122117 L4.31624836,61.7562946 C6.61277065,50.3183901 11.1076924,31.3788745 28.2460163,23.1490844 C47.0793394,14.105359 83.6865761,3.1260789 101.324775,3.1260789 Z" id="🧢-Hat" fill="#97C2ED"></path>
                <path d="M25.3419174,22.6094037 C34.7346797,12.6214597 88.0589508,-2.82751456 115.03718,0.447300573 L115.846565,0.552293508 C117.999478,0.82580949 120.12119,1.23999083 122.21521,1.80265228 C128.983626,3.38630982 135.975133,5.7842635 141.567637,9.78970969 C146.236573,13.0664311 160.964917,18.417576 156.623989,26.9895668 C158.233603,30.0447403 158.834235,33.8192609 157.746468,36.8283274 C157.60957,37.8676882 157.289754,38.8249941 156.880622,39.8174664 C160.319433,44.901347 163.042166,50.6506529 165.246172,56.1190189 C169.097624,69.8811709 171.4943,84.2032492 171.845319,98.2443874 C173.01304,124.920792 170.093347,156.785794 146.901948,174.036057 C132.892021,184.966928 110.946347,185.33422 95.2023898,171.781113 C94.3088529,170.721824 90.107162,167.863192 91.5092857,167.361876 C91.9266076,167.803409 92.3556302,168.23322 92.7924531,168.655216 C92.7725621,168.608327 92.7686619,168.561439 92.7768523,168.510643 L92.3659943,168.137891 C91.5923013,167.420813 90.5899818,166.380786 91.7315974,166.584309 C91.78191,166.64292 91.8369029,166.693716 91.8911158,166.752326 C92.1329041,166.897631 92.3155678,167.023604 92.4576946,167.134668 L92.5308042,167.193286 L92.508217,167.169748 C91.8506074,166.467227 91.4563568,165.75069 92.439592,166.208315 L92.5697514,166.271719 C93.0069644,166.732789 93.4511978,167.174322 93.9036216,167.604133 C93.8962112,167.553337 93.9036216,167.502541 93.931313,167.447838 L93.5094863,167.039587 C93.0977174,166.635347 93.1605637,166.633622 93.3618831,166.306886 C92.4866771,165.078018 94.120473,165.807915 94.235139,166.287349 C95.2573827,166.045092 96.1548199,167.967519 96.8131745,168.201961 C125.674302,190.430995 167.557433,170.706976 166.879188,108.765375 L166.868831,107.55346 C166.670466,87.7471989 165.006746,67.3900498 156.829529,49.4608584 C156.034278,47.7338004 155.144641,46.0536308 154.166079,44.4281643 C153.491344,43.2090645 152.769806,42.0212237 151.993665,40.8646418 C149.820861,40.6888101 147.675748,40.2902583 145.562227,39.6728936 C144.836399,39.4892472 144.118761,39.2860639 143.401514,39.0477143 C132.917762,39.6205349 122.667634,40.2437606 112.154631,40.8345551 L108.870843,41.0394535 C99.9650765,41.6130481 90.7548144,42.5317569 83.5680782,48.0502974 C76.5165075,53.0743953 76.4845259,62.9815349 70.4481785,68.4975707 C61.840426,74.350422 61.7776327,79.6281083 60.1200456,88.2532394 C60.2429021,94.755105 64.7429586,104.201956 56.4850545,106.938288 C57.8782078,108.928312 55.9362957,107.972179 55.7834076,107.274322 C55.7678068,107.27823 55.752206,107.282137 55.7405054,107.282137 C56.9819406,109.594128 55.1570347,108.138242 54.9955662,107.395451 C54.8980611,107.368099 54.800556,107.297766 54.7030508,107.200082 C55.9538466,109.225663 53.9319803,107.807288 54.0517166,107.438432 C51.6347596,103.716661 46.6604381,103.138761 43.1541537,104.124981 C43.1112515,104.257832 42.9556333,104.269554 42.8581282,104.199221 C27.9488144,107.436087 31.7955866,138.35746 47.0742498,135.368321 C47.7283142,135.234689 47.7127134,135.549232 47.8425902,135.579319 C47.4896216,134.650928 48.484564,135.02877 48.4740334,135.223748 L48.5346572,135.220799 C48.582695,135.216556 48.5630447,135.211288 48.59884,135.223748 C48.257572,133.325157 50.178033,136.075946 50.026315,136.188869 C50.0852081,136.153703 50.1515116,136.134166 50.2100147,136.126351 L50.1439059,135.946123 C49.8251844,135.095474 49.8525077,135.449038 49.854706,134.961954 C49.6152334,134.359828 49.5976825,134.623185 49.6538454,134.230885 C50.4955097,133.577573 50.7439527,135.559391 51.0247675,135.704355 C50.5434822,135.032287 50.9260923,134.483301 51.3800762,134.84825 C54.8212271,142.099549 59.2662907,148.912832 65.0109027,154.279997 C65.6392257,154.776233 66.2749592,155.264655 66.9337038,155.725725 C69.3771822,157.857977 73.1252793,159.229074 75.4127495,161.117897 C75.4127495,161.149156 75.3975387,161.18823 75.3741375,161.227303 L75.4264977,161.27468 L75.4264977,161.27468 L75.479443,161.324988 L76.2750849,161.70791 C76.5090972,161.907186 76.7197082,162.129906 76.906528,162.37607 C77.1058285,162.606605 77.2809477,162.860584 77.4295455,163.130193 C77.5036494,163.458412 77.3398408,163.59517 77.0278244,163.454505 C76.8909272,163.407616 76.7548101,163.352913 76.6183029,163.302117 C76.6261033,163.313839 76.6296135,163.321654 76.6378039,163.329469 C76.6825588,163.39729 76.9855271,164.100931 76.6364209,163.98644 L76.5949017,163.970278 C76.4034016,163.899945 76.2126816,163.821798 76.0254717,163.747558 C76.2477834,164.024981 76.4502041,164.325849 76.6296135,164.579828 C76.8211136,164.779104 76.9377297,165.013546 76.9849222,165.279247 C76.9767317,165.427727 76.8952175,165.490245 76.7470097,165.470708 C76.5207978,165.396468 76.2984861,165.318321 76.0757844,165.236266 L76.1391179,165.357307 C76.2964625,165.667366 76.5200806,166.187396 76.1229769,166.013833 C75.783269,165.908334 75.4560418,165.787205 75.1284246,165.654355 C75.1007331,165.709058 75.0465203,165.728595 74.9373145,165.677799 C73.8959598,165.306599 72.8897069,164.853344 71.9263562,164.318034 C71.0800118,163.700669 70.2254768,163.095027 69.3756222,162.481569 C68.5756901,162.000963 67.8034495,161.465653 67.0667008,160.863918 C62.1345015,157.672377 57.8165845,153.618089 54.3910344,149.102731 C48.6620233,154.073297 37.2075111,149.324669 30.1220087,145.433709 C23.8547692,141.956149 21.3913997,135.526179 20.7544962,128.593721 C19.4303766,119.260574 11.8171764,116.065907 12.3468242,95.587375 C12.3351236,95.5912824 12.323033,95.5912824 12.3074322,95.5912824 C12.0305176,95.5092276 11.7617935,95.3998212 11.5082802,95.2591559 C11.2469664,95.13412 11.0012535,94.9856399 10.7707514,94.8059008 L10.4860364,94.4112563 L10.4860364,94.4112563 C10.3382187,94.3292015 10.2056117,94.2432394 10.1042064,94.1572772 L10.051617,94.2252241 C9.88514484,94.4264815 9.99704822,94.1236738 10.0067012,94.0635003 L9.5120981,93.3896352 C8.33935749,91.7855334 7.05273469,89.9856701 6.00470085,88.5462922 L5.97168897,88.6047775 C5.94798073,88.6489205 5.93544435,88.6808174 5.9465878,88.6947723 C3.45240668,85.1046797 1.10682338,80.7682792 0.455099117,76.5701996 C-0.314411335,73.3364592 -0.013705527,70.0042531 0.657519758,67.0088623 C3.53548105,56.5195244 12.9630566,32.7830261 25.3419174,22.6094037 Z M93.029112,167.671743 L92.8728171,167.53229 L93.0102436,167.704792 C93.0822599,167.793938 93.1559873,167.874062 93.2760786,167.955796 C93.2682782,167.928445 93.2682782,167.901093 93.2717883,167.869834 C93.1921454,167.808927 93.110712,167.742319 93.029112,167.671743 Z M114.917926,5.71783819 C96.6228445,4.1419954 78.6284686,8.17987276 61.1703708,13.0676034 L59.9660379,13.4143897 C50.03918,16.2521372 39.5425689,18.805654 31.1536129,24.8795864 C19.4331068,33.8731826 13.3807686,48.1804129 8.09911095,61.3900626 C3.48711851,71.2045975 5.84479245,82.2714448 12.7949578,89.1245831 C13.5180558,82.3144259 14.7509106,75.7035446 16.6776119,69.1458036 C17.079723,68.1212909 16.7755071,67.7856477 17.6421326,67.6520156 C18.9510414,85.3242739 12.5043925,98.3811454 25.2619632,119.325436 C30.7975242,129.20796 24.3894873,136.438941 40.0215091,141.639261 L40.4445412,141.801202 C43.7012442,143.032357 47.257787,144.004165 50.4475371,143.315914 L50.1617665,142.850219 C49.870322,142.370643 49.7818818,142.137841 50.2057244,141.932704 C50.1944138,141.90926 50.178813,141.885816 50.1628222,141.858464 C49.8199942,141.209841 49.4884767,140.553402 49.1721701,139.889149 C49.0438534,139.93213 48.9151466,139.963389 48.7821496,139.998556 C48.8683441,140.158758 48.8796547,140.31896 48.638232,140.373663 C47.7787828,140.669061 46.8962306,140.787463 45.992795,140.732046 L45.7988828,140.717512 C44.7781991,140.654994 44.1350553,140.468612 43.5597751,140.295516 C43.369055,140.264257 43.177945,140.232998 42.9903451,140.193924 C41.1396978,139.782869 39.1806249,138.737256 37.9126682,137.701021 C23.4592884,129.476787 24.9530669,101.480863 42.7684235,98.8344005 C43.1338727,81.2074677 51.5025426,51.4692472 65.3911727,34.6726308 C77.9451526,19.2224944 112.217814,12.5260417 136.062108,14.8872661 C136.409616,15.0025336 136.757124,15.1189732 137.104633,15.2365851 C140.783306,15.5640228 144.2892,17.2059002 147.970604,17.968619 C145.327435,15.9840652 142.328957,14.6622015 139.240385,13.5388323 C133.086641,9.76782841 126.03195,7.72739918 119.216342,6.28831438 C117.804468,5.94055835 116.373093,5.74909716 114.917926,5.71783819 Z M41.9530076,112.994675 C42.910898,112.473431 42.8013022,112.976701 43.0216638,112.830565 C49.911766,112.267513 57.3412665,118.311044 61.192719,123.349208 C60.888503,123.665705 60.0655597,122.727936 59.9212522,122.579456 C59.9017511,122.598993 59.8783499,122.614622 59.8549487,122.622437 L59.962194,122.774077 C61.5232263,125.018366 58.4286519,122.377461 58.1388585,121.833148 C58.0881558,121.8605 58.0374531,121.876129 57.9789501,121.864407 C58.224273,122.105492 58.9735023,122.734188 59.1022091,123.181191 L59.3008443,123.346798 C61.1738803,124.953696 61.0184313,126.162481 58.8919881,123.880611 C58.9423007,123.98611 58.9618017,124.083794 58.9266999,124.161941 L58.9999185,124.210824 C60.0455817,124.942884 60.9055398,126.983578 58.719989,124.888712 C58.947371,126.418839 56.5542052,123.46135 56.4773711,123.482059 C52.3361334,120.225265 46.2389429,117.05795 41.0442598,116.632437 L40.8654705,116.611858 C39.9122404,116.489157 39.4615566,116.205808 39.7961942,115.581354 C38.6222325,115.301586 38.897197,114.722514 39.4529762,114.741269 C38.6249626,114.1958 39.3702918,113.674166 39.8507971,113.87774 C39.5204497,112.961462 40.8453494,113.571793 40.9662557,113.444022 C41.6538619,112.381608 41.8391216,113.2678 41.9530076,112.994675 Z M27.5105874,56.2010346 C30.8199113,54.9866236 40.5949952,58.6220418 39.8130041,63.4367045 C39.3473196,64.5420998 37.812979,65.1754847 36.7345723,64.5514775 L35.3270553,63.6044248 C32.8776087,61.9609987 30.6684808,60.5199342 28.0386751,59.0866282 C26.6072999,58.3750959 25.9910675,56.8645062 27.5105874,56.2010346 Z M46.3387882,49.0461691 L45.0607146,48.2129199 C38.1636171,43.6906838 28.4134068,36.8384163 45.7050048,43.9279036 C47.6757784,44.774631 50.2943761,45.2755559 51.3696626,47.1557829 C53.0588414,50.6212304 48.6133877,50.8541098 46.3387882,49.0461691 Z M47.1138369,28.7555814 C46.5603978,26.651462 53.4469898,29.1205298 55.4516952,29.7714979 L55.7570388,29.8870337 C57.7071477,30.6150075 59.9425473,31.2903321 61.1089426,32.9763237 C62.4755744,35.3058984 59.709549,35.7884587 57.996189,34.7362037 C54.4832743,32.436325 50.6318218,30.7010615 47.1138369,28.7555814 Z M64.6258745,18.9539799 C60.7496128,14.7131654 71.1235879,18.775721 72.6775537,19.9034209 L72.7219201,19.9366837 C73.881451,20.7544965 73.6462687,22.5159394 72.5569414,23.0332754 C69.4574485,23.0922767 67.1766086,20.504034 64.6258745,18.9539799 Z M82.2649417,14.3076467 C76.1026178,9.87082671 84.2201145,11.9811979 87.0395727,13.719978 C88.9612037,15.4177308 86.9818497,18.2837876 82.2649417,14.3076467 Z" id="🖍-Ink" fill="#000000"></path>
            </g>
            <g id="FACE" transform="translate(163.764100, 74.263379)" fill="#000000">
                <path d="M45.7451753,72.325298 C42.8659669,73.1589868 39.7754779,73.2335286 36.8406135,72.3725437 C34.1786436,71.5915384 31.4453966,69.8728495 29.4862458,67.5986087 C27.7458431,65.5782972 26.6186816,63.123119 26.662953,60.5023928 C26.667989,60.2030842 26.7750408,59.9532527 26.9397194,59.7593342 C27.1170026,59.550573 27.3646144,59.407222 27.6298711,59.3450021 C27.9026689,59.2810132 28.1910586,59.3036988 28.4366265,59.4152142 C28.6589322,59.5161659 28.8493943,59.687635 28.9684903,59.9382498 C29.2695768,60.3336606 29.5694939,60.7232155 29.8705883,61.101966 C32.2914686,64.0904413 34.6359022,66.3237933 38.2761934,67.1248341 C40.251308,67.5595429 42.2239384,67.3667774 44.033897,66.7035378 C45.9713707,65.9935716 47.722787,64.7452832 49.0952426,63.147879 C49.7154794,62.4259668 50.4477397,62.1313077 51.1637643,62.1263551 C51.9751764,62.1207427 52.7771855,62.4976765 53.3813856,63.1001301 C53.9752904,63.6923182 54.3729572,64.4970451 54.4089992,65.3388499 C54.440632,66.0776703 54.1995468,66.8494209 53.55817,67.5379424 C51.4455673,69.8059723 48.7076184,71.4675082 45.7451753,72.325298 Z M45.6562796,34.8959193 C48.6076987,36.6894205 53.1047549,40.8715154 49.9297073,45.3178233 C46.1923726,49.2382799 40.8114544,44.7432087 38.1598311,42.710263 C35.7011218,41.1347186 32.9386241,45.1869006 35.219816,47.0266143 C54.3805012,61.2085102 62.1563131,35.3648948 47.1490661,32.7872016 C45.4967143,32.5031509 44.8830267,34.3410801 45.6562796,34.8959193 Z M18.0472395,27.0041749 C17.0986339,26.3976882 15.9827679,26.1895111 14.7460644,26.751997 C13.7796299,27.1913575 12.0846128,28.6560569 10.9049933,30.5814935 C10.0979757,31.89875 9.52570822,33.4440641 9.64484652,35.0536961 C9.67251504,35.4275149 9.53434761,35.7031428 9.3164146,35.9069396 C9.14429604,36.0678936 8.89567634,36.18618 8.60365725,36.2231571 C8.35573434,36.2545506 8.07823111,36.2262297 7.85259208,36.1558249 C7.42336733,36.0218965 7.19620112,35.7435489 7.11060925,35.5163037 C6.28467169,33.3234514 6.64049429,30.8763631 7.56616199,28.6686596 C8.8154065,25.6892302 11.0840689,23.193587 12.5704278,22.3889602 C15.1138985,21.0115916 18.1144794,20.9481989 20.6615908,22.3513919 C22.8298188,23.5456695 24.1855628,25.4737858 25.5339465,27.4391881 C25.820582,27.8569878 26.1050708,28.2717242 26.3990962,28.6791653 C26.988353,29.4955888 27.0470053,30.3053071 26.8188089,30.9996462 C26.5660085,31.7688482 25.9214203,32.4180038 25.1153761,32.7577287 C24.3703741,33.0717259 23.505703,33.1159265 22.7405699,32.7933007 C22.0942149,32.5207587 21.5010366,31.9894704 21.1257018,31.088009 C20.4935633,29.5698381 19.4403601,27.8948601 18.0472395,27.0041749 L18.0472395,27.0041749 Z M66.2250764,30.3818171 C65.5754092,30.7202344 65.0671472,30.822269 64.346474,30.6064091 C63.9479432,30.4867369 63.5540601,30.257379 63.2456837,29.9490877 C62.9400657,29.6435541 62.7195626,29.263599 62.6338528,28.8420917 C62.4230519,27.8018222 61.8537234,26.8280626 61.0424062,26.1932667 C60.3489589,25.6506953 59.4736715,25.3631195 58.5028125,25.5253586 C57.4551814,25.7001952 56.4570584,26.3719026 55.7696168,27.1638304 C55.5398538,27.4288239 55.3597516,27.7297814 55.1786873,28.0287074 C54.8399778,28.5877323 54.5107652,29.1073596 54.0436349,29.5179 C53.8665612,29.6740983 53.599738,29.7822821 53.3413087,29.7822821 C53.2362762,29.7822821 53.1296831,29.7651958 53.02811,29.7335481 C51.9853804,28.6872727 51.784855,27.8935656 51.8184726,27.1063134 C51.8537256,26.2807634 52.1792905,25.4449021 52.7054056,24.6650188 C53.9395421,22.8356045 56.2827539,21.3356553 57.8639717,20.9959097 C60.0294386,20.5306856 62.1800059,21.0891563 63.9042317,22.2982859 C65.6783587,23.5424093 66.9929825,25.4740284 67.4028434,27.6508677 C67.5014421,28.175141 67.4595433,28.7410348 67.2598245,29.2316891 C67.0646689,29.7111325 66.7245786,30.1217666 66.2250764,30.3818171 Z M22.8230926,7.4995794 C21.523551,8.76537066 19.9854297,8.9614376 18.4293677,9.13582619 C17.5647809,9.23363304 16.8745822,9.31247906 16.1953966,9.46568828 C14.3285859,9.88696846 12.4833067,10.5214617 10.7997915,11.4352541 C9.03994749,12.3905164 7.1221174,13.5425605 5.74238217,15.0184176 C5.41429679,15.3696185 5.10502415,15.7381296 4.79531945,16.1074474 C4.51291192,16.4442192 4.24086548,16.7684311 3.95415525,17.081037 C3.62488855,17.4401051 3.3122139,17.816433 3.00120146,18.1917776 C2.80888628,18.5084923 2.77089675,18.5863881 2.73216865,18.6674779 C2.67388984,18.7893267 2.6060989,18.92569 2.52867215,19.0719803 C2.42263366,19.2723299 2.29842852,19.491646 2.16834626,19.6904887 C1.95191896,20.0539384 1.83578816,20.1540505 1.73543858,20.1988295 C1.56892458,20.2729684 1.41100949,20.3094904 1.25780632,20.2897129 C1.11415705,20.2711687 0.978823714,20.2021946 0.845180201,20.0892822 C0.177985923,19.5257286 -0.0187862956,18.600866 0.00138172831,17.6191221 C0.0319865038,16.1293355 0.581628392,14.4798703 1.08831495,13.4659033 C2.26646198,11.1098763 3.90039281,8.66063444 5.86509767,6.90221602 C8.10700355,4.89501333 10.5597231,3.37545793 13.3769237,2.32838071 C15.1276488,1.67745185 17.154681,1.07996303 19.0620289,1.15543428 C20.4349366,1.20975843 21.7455727,1.61775379 22.8279509,2.63662418 C23.4925944,3.2620798 23.8116412,4.1517263 23.8116412,5.04074273 C23.8116412,5.94746769 23.4802751,6.8595469 22.8230926,7.4995794 Z M68.8680522,19.0907696 C68.7854087,19.2261817 68.6710216,19.3194988 68.5437428,19.3755443 C68.4103161,19.4342969 68.2613613,19.4512193 68.1184176,19.4271403 C67.9761069,19.4031679 67.8408316,19.3386755 67.7335263,19.240114 C67.6306762,19.1456446 67.5523578,19.0203567 67.5173387,18.8668684 C66.6545449,15.0784669 64.9792146,12.2598398 61.4034297,10.4422214 C59.6444479,9.54807289 57.6217854,8.97996505 55.7070084,8.52701707 C55.1505841,8.39537911 54.5626379,8.31008695 53.9705398,8.22365804 C52.114862,7.95278363 50.2457946,7.64256829 49.0360502,6.14301001 C48.3071189,5.23973012 48.0011963,4.08453251 48.1741637,3.02805478 C48.3370221,2.03332326 48.9184542,1.12122485 49.9754018,0.574633534 C52.6067606,-0.785503602 55.8767373,0.549146881 58.5339855,1.68608585 C58.7310985,1.77042328 58.924592,1.85321393 59.1139158,1.93309751 C61.7124976,3.02967316 64.0825415,4.4771284 66.0307611,6.54715315 C67.5765814,8.18937696 69.0088054,10.6171052 69.5856304,13.1145661 C70.065528,15.1923634 69.9526884,17.3135089 68.8680522,19.0907696 Z" id="🖍-Ink"></path>
            </g>
            <g id="FACIAL-HAIR" transform="translate(128.197192, 105.498847)" fill="#000000">
                <path d="M97.3718625,50.2972726 C96.0078132,49.8510508 94.6679963,49.3317612 93.3219259,48.831227 C86.4395351,45.3751572 78.1258696,44.7484148 70.9081337,47.6590156 C67.3655139,49.0875505 64.0620914,51.6543026 60.5073555,53.3364259 C59.6631301,53.65136 58.8118696,53.9373796 57.9512287,54.1772922 C57.4235879,53.9936457 56.895947,53.7982772 56.3722146,53.6029086 C52.6017322,52.1821885 49.0552041,50.4297325 45.611859,48.5018356 C45.2444646,47.9848904 44.8633907,47.4824024 44.4537851,46.9998421 C46.9454224,46.646225 49.3850773,46.0585564 51.5921794,45.4521324 C58.369433,43.5961311 64.7558414,40.5718258 71.5096442,38.6337697 C77.7983414,36.8246568 84.6224963,35.8360919 90.9385527,38.0828303 C93.9363344,39.1495427 96.5745386,41.0172661 99.4902428,42.2754396 C100.998905,42.9240632 102.808517,43.5609647 104.571229,43.6547416 C103.43387,46.3781793 101.99556,48.921878 100.029609,51.0396731 C99.1306653,50.8482119 98.2395386,50.5786033 97.3718625,50.2972726 Z M112.03676,28.9661519 C111.433296,29.4674677 108.942831,31.0851193 108.134954,32.0494585 C107.926243,31.9701389 107.718704,31.8888656 107.512338,31.8052478 C107.15706,31.3691852 106.633718,31.177724 106.100215,31.1894461 C102.375852,29.4576992 99.0603132,27.0105127 96.101616,23.9420541 C93.9988696,21.7656483 91.8453132,19.487651 89.0351372,18.2255701 C85.7246794,16.7329543 82.46894,17.4206516 78.9904189,17.6472791 C75.289116,17.8934435 71.6347146,16.8423607 67.9373203,17.3464116 C65.2326724,17.7176118 62.6999963,18.8624716 60.5112639,20.4762159 C56.0439048,23.7701298 52.9640456,28.3964572 49.1884822,32.3858832 C44.9048203,36.910619 39.6362287,39.8020737 33.7774611,41.27906 C33.707109,41.2321715 33.6328484,41.1852831 33.5585879,41.142302 C29.2397499,37.2349308 25.339116,32.8235088 21.8879541,28.1229412 C18.5188696,23.5317801 9.63496112,2.86569401 7.48922168,1.05267379 C6.59809492,0.298551152 5.62098225,-0.0257606549 4.68686253,0.00159094331 C2.99450337,0.040664655 1.43112309,1.21678338 0.731510416,3.06887731 C-0.456658598,6.21821847 0.137425909,10.2896992 0.231228726,13.5836131 C0.348482247,17.6160202 0.614256895,21.6445198 1.03636957,25.65739 C1.4545738,29.6233718 2.0095738,33.5776314 2.70136957,37.5045394 C3.04922168,39.489484 3.4361583,41.4705211 3.86217943,43.4437436 C3.99506675,44.0650156 4.16313013,44.6198623 4.36636957,45.1356353 C4.57351746,46.1085707 4.79629915,47.0775988 5.03471464,48.0388121 C6.59027802,54.333587 9.04478506,60.6361767 13.7310175,65.282041 C18.6087639,70.1232739 25.2374963,73.3390404 31.3933062,76.2148656 C37.2559822,78.9539328 43.4000668,81.388225 49.7043977,83.2950221 C55.1801372,85.7762028 61.0428132,87.7377031 66.92894,88.7692491 C73.4091513,89.9062941 80.2215808,89.9766268 86.4790104,87.725981 C89.5549611,86.620195 92.4628484,85.0767834 95.1010527,83.1543568 C98.84144,81.2123933 102.206616,78.5436588 104.962074,75.0113952 C109.897317,68.6809465 112.252954,60.9987525 113.283704,53.0771804 C113.547523,51.0496643 114.539383,43.27897 114.617377,42.0691337 C114.869256,38.1620178 115.121135,34.255022 115.373014,30.3477984 C115.491831,28.5039099 113.228056,27.977587 112.03676,28.9661519 Z" id="🖍-Ink"></path>
            </g>
        </g>
    </g>
</svg>